 <svg xmlns="http://www.w3.org/2000/svg" viewBox="0 0 48 48" width="40" height="60" fill="none">
  <defs>
    <linearGradient
      id="linearGradient4975"
      x1="34.893"
      x2="45.919"
      y1="36.423"
      y2="48.548"
      gradientTransform="translate(-18.018 -13.571)"
      gradientUnits="userSpaceOnUse"
    >
      <stop offset="0" stopColor="#729fcf"></stop>
      <stop offset="1" stopColor="#5187d6"></stop>
    </linearGradient>
    <linearGradient
      id="linearGradient7922"
      x1="16.875"
      x2="27.901"
      y1="22.852"
      y2="34.977"
      gradientUnits="userSpaceOnUse"
    >
      <stop offset="0" stopColor="#fff"></stop>
      <stop offset="1" stopColor="#fff" stopOpacity="0.34"></stop>
    </linearGradient>
    <radialGradient
      id="radialGradient2097"
      cx="23.071"
      cy="35.127"
      r="10.319"
      gradientTransform="matrix(.91481 .01265 -.00822 .21356 2.254 27.189)"
      gradientUnits="userSpaceOnUse"
    >
      <stop offset="0" stopColor="#000"></stop>
      <stop offset="1" stopColor="#000" stopOpacity="0"></stop>
    </radialGradient>
  </defs>
  <g>
    <path
      fill="url(#radialGradient2097)"
      d="M33.278 34.941a10.319 2.32 0 11-20.638 0 10.319 2.32 0 1120.638 0z"
      opacity="0.108"
      transform="matrix(1.5505 0 0 1.9787 -12.481 -32.491)"
    ></path>
    <path
      fill="#75a1d0"
      stroke="#3465a4"
      strokeWidth="1"
      d="M27.514 37.543v-9.027l9.979-.04V21.48h-9.97l-.009-9.96-7.016.011.005 9.931-9.99.074-.036 6.969 10.034-.029.007 9.04 6.996.027z"
    ></path>
    <path
      fill="url(#linearGradient4975)"
      stroke="url(#linearGradient7922)"
      strokeWidth="1"
      d="M26.499 36.534V27.5h10.002l-.006-5.025h-9.987V12.48l-4.995.018.009 9.977-10.026.018-.027 4.973 10.064.009-.013 9.028 4.979.031z"
      opacity="0.409"
    ></path>
    <path
      fill="#fff"
      fillRule="evenodd"
      d="M11 25c0 1.938 25.984-.969 25.984-.031v-3L27 22v-9.965h-6V22H11v3z"
      opacity="0.312"
    ></path>
  </g>
</svg>
