<?xml version="1.0" encoding="utf-8"?>
<svg viewBox="0 0 48 48" width="40" height="60" fill="none" xmlns="http://www.w3.org/2000/svg">
  <g transform="matrix(1.767909, 0, 0, 1.842751, -0.558311, 0.145443)" style="transform-origin: 14.4344px 15.5778px;">
    <rect width="{38}" height="{37}" fill="transparent"/>
    <path z="3" d="M 12.022 11.915 L 13.558 11.915 L 13.558 27.043 L 12.022 27.043 L 12.022 11.915 Z M 23.754 18.507 C 23.754 19.515 23.645 20.392 23.426 21.139 C 23.213 21.88 22.914 22.494 22.53 22.979 C 22.151 23.464 21.701 23.827 21.178 24.067 C 20.661 24.302 20.101 24.419 19.498 24.419 C 18.895 24.419 18.335 24.302 17.818 24.067 C 17.306 23.827 16.861 23.464 16.482 22.979 C 16.103 22.494 15.807 21.88 15.594 21.139 C 15.381 20.392 15.274 19.515 15.274 18.507 C 15.274 17.494 15.381 16.616 15.594 15.875 C 15.807 15.134 16.103 14.52 16.482 14.035 C 16.861 13.55 17.306 13.19 17.818 12.955 C 18.335 12.715 18.895 12.595 19.498 12.595 C 20.101 12.595 20.661 12.715 21.178 12.955 C 21.701 13.19 22.151 13.55 22.53 14.035 C 22.914 14.52 23.213 15.134 23.426 15.875 C 23.645 16.616 23.754 17.494 23.754 18.507 Z M 21.714 18.507 C 21.714 17.67 21.653 16.976 21.53 16.427 C 21.407 15.878 21.242 15.44 21.034 15.115 C 20.831 14.79 20.597 14.563 20.33 14.435 C 20.063 14.302 19.786 14.235 19.498 14.235 C 19.215 14.235 18.941 14.302 18.674 14.435 C 18.413 14.563 18.181 14.79 17.978 15.115 C 17.775 15.44 17.613 15.878 17.49 16.427 C 17.373 16.976 17.314 17.67 17.314 18.507 C 17.314 19.344 17.373 20.038 17.49 20.587 C 17.613 21.136 17.775 21.574 17.978 21.899 C 18.181 22.224 18.413 22.454 18.674 22.587 C 18.941 22.715 19.215 22.779 19.498 22.779 C 19.786 22.779 20.063 22.715 20.33 22.587 C 20.597 22.454 20.831 22.224 21.034 21.899 C 21.242 21.574 21.407 21.136 21.53 20.587 C 21.653 20.038 21.714 19.344 21.714 18.507 Z" fill="#222225" style="transform-origin: 6.58553px 7.04533px;"/>
    <path z="3" d="M 25.366 27.785 C 25.088 27.785 24.859 27.737 24.678 27.641 C 24.507 27.555 24.422 27.438 24.422 27.289 C 24.422 27.214 24.443 27.091 24.486 26.921 C 24.528 26.761 24.587 26.547 24.662 26.281 L 26.518 19.849 L 24.662 13.433 C 24.512 12.931 24.438 12.585 24.438 12.393 C 24.438 12.254 24.523 12.142 24.694 12.057 C 24.875 11.971 25.099 11.929 25.366 11.929 C 25.483 11.929 25.584 11.955 25.67 12.009 C 25.755 12.051 25.824 12.147 25.878 12.297 L 28.214 19.273 C 28.224 19.305 28.251 19.379 28.294 19.497 C 28.336 19.603 28.358 19.721 28.358 19.849 C 28.358 19.987 28.336 20.11 28.294 20.217 C 28.251 20.313 28.224 20.382 28.214 20.425 L 25.878 27.417 C 25.824 27.566 25.755 27.662 25.67 27.705 C 25.584 27.758 25.483 27.785 25.366 27.785 Z" fill="#222225" style="transform-origin: 6.58553px 7.04533px;"/>
  </g>
</svg>