<?xml version="1.0" encoding="utf-8"?>
<svg viewBox="0 0 48 48" width="40" height="60" fill="none" xmlns="http://www.w3.org/2000/svg">
  <g transform="matrix(1.767909, 0, 0, 1.842751, 0.90843, 0.5367)" style="transform-origin: 14.4344px 15.5778px;">
    <rect width="{38}" height="{37}" fill="transparent"/>
    <path z="3" d="M 25.366 27.785 C 25.088 27.785 24.859 27.737 24.678 27.641 C 24.507 27.555 24.422 27.438 24.422 27.289 C 24.422 27.214 24.443 27.091 24.486 26.921 C 24.528 26.761 24.587 26.547 24.662 26.281 L 26.518 19.849 L 24.662 13.433 C 24.512 12.931 24.438 12.585 24.438 12.393 C 24.438 12.254 24.523 12.142 24.694 12.057 C 24.875 11.971 25.099 11.929 25.366 11.929 C 25.483 11.929 25.584 11.955 25.67 12.009 C 25.755 12.051 25.824 12.147 25.878 12.297 L 28.214 19.273 C 28.224 19.305 28.251 19.379 28.294 19.497 C 28.336 19.603 28.358 19.721 28.358 19.849 C 28.358 19.987 28.336 20.11 28.294 20.217 C 28.251 20.313 28.224 20.382 28.214 20.425 L 25.878 27.417 C 25.824 27.566 25.755 27.662 25.67 27.705 C 25.584 27.758 25.483 27.785 25.366 27.785 Z" fill="#222225" style="transform-origin: 6.58553px 7.04533px;"/>
  </g>
  <ellipse style="fill: rgb(34, 34, 37);" cx="24" cy="24" rx="8" ry="12"/>
  <rect y="10.059" width="2.694" height="27.883" style="fill: rgb(34, 34, 37);" x="10"/>
  <ellipse style="fill: rgb(255, 255, 255);" cx="24" cy="24" rx="5" ry="9"/>
</svg>